<?xml version="1.0" encoding="UTF-8" standalone="no"?><!-- Generator: Gravit.io --><svg xmlns="http://www.w3.org/2000/svg" xmlns:xlink="http://www.w3.org/1999/xlink" style="isolation:isolate" viewBox="0 0 256 128" width="256pt" height="128pt"><defs><clipPath id="_clipPath_wCh9gWfu4naSrxkTcjumylBNjvwUGWsF"><rect width="256" height="128"/></clipPath></defs><g clip-path="url(#_clipPath_wCh9gWfu4naSrxkTcjumylBNjvwUGWsF)"><path d=" M 189.979 60.171 L 185.527 88.66 C 185.343 89.848 183.789 90.185 183.124 89.183 L 173.656 74.939 C 173.313 74.419 173.379 73.736 173.81 73.293 L 187.731 59.052 C 188.629 58.134 190.18 58.905 189.979 60.171 Z  M 229.077 80.371 L 217.531 80.366 C 216.721 80.366 216.102 79.647 216.228 78.85 L 220.121 53.951 C 220.244 53.153 219.625 52.434 218.816 52.433 L 208.795 52.431 C 215.549 51.464 221.144 47.383 221.911 42.494 C 222.787 36.883 216.968 32.333 208.916 32.332 C 200.862 32.329 193.622 36.877 192.745 42.488 C 191.979 47.376 196.303 51.459 202.754 52.43 L 194.207 52.428 L 163.723 52.422 C 163.351 52.422 162.999 52.578 162.747 52.852 L 150.809 65.932 C 150.561 66.205 150.204 66.363 149.833 66.363 L 146.835 66.363 C 146.026 66.363 145.407 65.641 145.531 64.844 L 149.966 36.473 C 150.09 35.677 149.471 34.956 148.661 34.956 L 122.167 34.95 C 121.517 34.95 120.964 35.422 120.862 36.063 L 114.112 79.257 C 114.011 79.897 113.457 80.371 112.808 80.371 L 107.197 80.369 C 106.387 80.366 105.769 79.647 105.893 78.852 L 109.787 53.93 C 109.913 53.132 109.294 52.412 108.484 52.412 L 98.463 52.409 C 105.219 51.441 110.813 47.362 111.579 42.472 C 112.455 36.861 106.638 32.311 98.583 32.31 C 90.53 32.308 83.29 36.855 82.414 42.467 C 81.649 47.355 85.97 51.438 92.422 52.408 L 84.991 52.407 L 84.769 52.407 L 80.859 52.406 L 67.887 52.403 C 67.077 52.403 66.458 51.683 66.583 50.887 L 68.838 36.459 C 68.963 35.66 68.344 34.941 67.535 34.941 L 41.041 34.935 C 40.389 34.935 39.835 35.408 39.736 36.047 L 37.355 51.286 C 37.254 51.925 36.701 52.397 36.05 52.397 L 28.902 52.396 C 28.25 52.396 27.697 52.868 27.597 53.509 L 25.616 66.182 C 25.492 66.982 26.11 67.7 26.92 67.7 L 33.247 67.7 C 34.057 67.7 34.676 68.419 34.551 69.22 L 30.657 94.138 C 30.532 94.935 31.151 95.657 31.961 95.657 L 58.455 95.661 C 59.105 95.661 59.658 95.188 59.76 94.547 L 63.78 68.82 C 63.879 68.179 64.434 67.706 65.084 67.706 L 69.535 67.708 C 69.893 67.708 70.234 67.563 70.483 67.307 L 77.18 60.429 C 78.076 59.509 79.63 60.28 79.43 61.548 L 74.337 94.147 C 74.212 94.942 74.831 95.661 75.64 95.661 L 79.643 95.663 L 79.643 95.666 L 102.705 95.674 C 103.063 95.674 103.406 95.528 103.654 95.274 L 110.24 88.51 C 111.137 87.586 112.689 88.357 112.491 89.626 L 111.784 94.152 C 111.659 94.952 112.278 95.671 113.088 95.671 L 139.581 95.676 C 140.233 95.676 140.785 95.204 140.885 94.564 L 142.728 82.778 C 142.828 82.138 143.38 81.666 144.033 81.666 L 147.226 81.666 C 147.69 81.666 148.118 81.91 148.356 82.304 L 155.994 95.038 C 156.232 95.436 156.664 95.68 157.128 95.68 L 184.431 95.685 L 213.597 95.69 L 213.599 95.671 L 216.742 95.674 C 217.097 95.674 217.44 95.528 217.69 95.274 L 230.025 82.6 C 230.837 81.767 230.244 80.371 229.077 80.371" fill="rgb(0,0,0)"/></g></svg>