<?xml version="1.0" encoding="UTF-8" standalone="no"?><!-- Generator: Gravit.io --><svg xmlns="http://www.w3.org/2000/svg" xmlns:xlink="http://www.w3.org/1999/xlink" style="isolation:isolate" viewBox="0 0 1920 1080" width="1920pt" height="1080pt"><defs><clipPath id="_clipPath_2jzVHzzvN1CQSlVOnTq4wstriKJf7Rqn"><rect width="1920" height="1080"/></clipPath></defs><g clip-path="url(#_clipPath_2jzVHzzvN1CQSlVOnTq4wstriKJf7Rqn)"><rect width="1920" height="1080" style="fill:rgb(54,164,247)" fill-opacity="0"/><g><path d=" M 1263.02 626.288 L 1248.888 628.299 L 1250.909 642.44 L 1265.035 640.409 L 1263.02 626.288 Z " fill="rgb(255,255,255)"/><path d=" M 1250.909 642.44 L 1236.783 644.446 L 1238.787 658.567 L 1252.921 656.564 L 1250.909 642.44 Z " fill="rgb(255,255,255)"/><path d=" M 1232.651 616.127 L 1218.539 618.131 L 1226.669 674.704 L 1240.798 672.708 L 1232.651 616.127 Z " fill="rgb(255,255,255)"/><path d=" M 1275.562 609.591 L 1261.426 611.6 L 1263.428 625.721 L 1277.559 623.708 L 1275.562 609.591 Z " fill="rgb(255,255,255)"/><path d=" M 1288.115 592.848 L 1273.994 594.847 L 1276.004 608.98 L 1290.141 606.969 L 1288.115 592.848 Z " fill="rgb(255,255,255)"/><path d=" M 1300.679 576.102 L 1286.548 578.12 L 1288.552 592.247 L 1302.679 590.236 L 1300.679 576.102 Z " fill="rgb(255,255,255)"/><path d=" M 1313.054 559.584 L 1298.933 561.604 L 1300.941 575.751 L 1315.072 573.725 L 1313.054 559.584 Z " fill="rgb(255,255,255)"/><path d=" M 1197.794 576.972 L 1183.66 578.981 L 1185.679 593.112 L 1199.82 591.101 L 1197.794 576.972 Z " fill="rgb(255,255,255)"/><path d=" M 1326.947 557.832 L 1324.929 543.71 L 1163.949 567.774 L 1165.974 581.898 L 1326.947 557.832 Z " fill="rgb(255,255,255)"/><path d=" M 1214.158 589.039 L 1200.044 591.072 L 1206.473 634.144 L 1220.595 632.138 L 1214.158 589.039 Z " fill="rgb(255,255,255)"/><path d=" M 1163.47 641.585 L 1134.472 645.717 L 1138.602 674.722 L 1167.607 670.587 L 1163.47 641.585 Z " fill="rgb(255,255,255)"/><path d=" M 1189.984 621.87 L 1160.992 626.005 L 1165.119 655.002 L 1194.121 650.875 L 1189.984 621.87 Z " fill="rgb(255,255,255)"/><path d=" M 1216.619 603.182 L 1187.622 607.355 L 1191.753 636.336 L 1220.751 632.197 L 1216.619 603.182 Z " fill="rgb(255,255,255)"/><path d=" M 1275.746 421.328 L 1259.684 429.406 L 1251.604 413.357 L 1267.653 405.278 L 1275.746 421.328 Z " fill="rgb(255,255,255)"/><path d=" M 1198.908 552.194 L 1211.632 555.237 L 1229.841 500.403 L 1270.658 514.928 L 1262.323 539.921 L 1274.121 545.548 L 1288.697 505.559 L 1260.163 494.664 L 1266.71 476.048 L 1294.123 485.044 L 1299.26 472.208 L 1271.025 462.45 L 1279.65 438.985 L 1241.678 425.162 L 1187.223 450.467 L 1192.743 463.779 L 1233.924 444.062 L 1198.908 552.194 Z " fill="rgb(255,255,255)"/></g><g><path d=" M 653.95 445.891 C 653.364 449.302 651.631 452.232 648.746 454.685 C 645.863 457.141 642.666 458.365 639.16 458.365 L 614.089 458.365 L 607.667 495.788 L 645.215 495.788 C 644.55 499.197 642.784 502.131 639.915 504.584 C 637.046 507.038 633.904 508.264 630.497 508.264 L 593.075 508.264 L 601.805 458.365 C 602.47 454.958 604.236 452.024 607.107 449.571 C 609.974 447.119 613.112 445.891 616.525 445.891 L 653.95 445.891 Z " fill="rgb(255,255,255)"/><path d=" M 701.729 458.365 L 676.461 458.365 L 670.039 495.788 L 695.305 495.788 L 701.729 458.365 Z  M 716.32 445.891 L 707.591 495.788 C 706.924 499.197 705.158 502.131 702.289 504.584 C 699.42 507.038 696.28 508.262 692.871 508.262 L 655.446 508.262 L 664.177 458.365 C 664.841 454.958 666.608 452.024 669.477 449.571 C 672.346 447.119 675.485 445.891 678.896 445.891 L 716.32 445.891 Z " fill="rgb(255,255,255)"/><path d=" M 791.168 445.891 L 782.437 495.788 C 781.775 499.206 780.023 502.144 777.178 504.599 C 774.332 507.058 771.219 508.284 767.839 508.284 L 776.573 458.365 L 763.973 458.365 L 757.486 495.788 C 756.821 499.197 755.059 502.134 752.193 504.585 C 749.327 507.042 746.194 508.267 742.791 508.267 L 751.566 458.365 L 738.832 458.365 L 732.413 495.768 C 731.753 499.182 730.001 502.122 727.156 504.579 C 724.31 507.035 721.199 508.264 717.817 508.264 L 726.548 458.365 C 727.213 454.958 728.98 452.024 731.848 449.571 C 734.719 447.119 737.859 445.891 741.27 445.891 L 753.745 445.891 L 751.566 458.365 L 764.018 458.365 C 764.683 454.958 766.446 452.024 769.311 449.571 C 772.176 447.119 775.31 445.891 778.715 445.891 L 791.168 445.891 Z " fill="rgb(255,255,255)"/><path d=" M 838.947 458.365 L 813.681 458.365 L 811.621 470.841 L 836.764 470.841 L 838.947 458.365 Z  M 853.54 445.891 L 849.173 470.841 C 848.589 474.25 846.861 477.183 843.988 479.634 C 841.114 482.089 837.928 483.314 834.429 483.314 L 809.439 483.314 L 807.261 495.768 C 806.602 499.182 804.849 502.122 802.003 504.579 C 799.156 507.035 796.048 508.262 792.664 508.262 L 801.396 458.365 C 802.061 454.958 803.828 452.024 806.696 449.571 C 809.566 447.119 812.703 445.891 816.112 445.891 L 853.54 445.891 Z " fill="rgb(255,255,255)"/><path d=" M 915.914 445.891 L 907.18 495.788 C 906.515 499.197 904.751 502.131 901.882 504.584 C 899.012 507.038 895.872 508.264 892.461 508.264 L 855.037 508.264 L 863.768 458.365 C 864.426 454.951 866.178 452.012 869.024 449.556 C 871.869 447.102 874.981 445.871 878.364 445.871 L 869.632 495.788 L 894.896 495.788 L 901.314 458.384 C 901.975 454.973 903.727 452.036 906.572 449.577 C 909.418 447.122 912.531 445.891 915.914 445.891 Z " fill="rgb(255,255,255)"/><path d=" M 990.762 445.891 C 990.175 449.302 988.435 452.232 985.547 454.685 C 982.659 457.141 979.453 458.365 975.935 458.365 L 963.374 458.365 L 956.955 495.768 C 956.295 499.182 954.543 502.122 951.697 504.579 C 948.852 507.035 945.739 508.264 942.36 508.264 L 951.091 458.365 L 926.144 458.365 C 926.809 454.958 928.573 452.024 931.442 449.571 C 934.313 447.119 937.449 445.891 940.862 445.891 L 990.762 445.891 Z " fill="rgb(255,255,255)"/><path d=" M 1053.134 445.891 C 1052.549 449.302 1050.81 452.232 1047.931 454.685 C 1045.045 457.141 1041.851 458.365 1038.345 458.365 L 1013.272 458.365 L 1011.215 470.842 L 1036.29 470.842 C 1035.708 474.25 1033.978 477.183 1031.105 479.634 C 1028.226 482.089 1025.037 483.314 1021.538 483.314 L 1009.03 483.314 L 1006.852 495.788 L 1044.402 495.788 C 1043.733 499.197 1041.969 502.131 1039.098 504.584 C 1036.231 507.038 1033.087 508.264 1029.68 508.264 L 992.258 508.264 L 1000.988 458.365 C 1001.652 454.958 1003.42 452.024 1006.29 449.571 C 1009.159 447.119 1012.297 445.891 1015.706 445.891 L 1053.134 445.891 Z " fill="rgb(255,255,255)"/><path d=" M 1100.914 458.365 L 1075.646 458.365 L 1073.589 470.841 L 1098.73 470.841 L 1100.914 458.365 Z  M 1115.505 445.891 L 1113.267 458.37 C 1112.687 461.783 1110.967 464.713 1108.111 467.171 C 1105.252 469.625 1102.126 470.851 1098.73 470.851 L 1096.546 483.314 L 1108.958 483.314 L 1106.774 495.788 C 1106.114 499.206 1104.363 502.144 1101.518 504.599 C 1098.672 507.057 1095.558 508.284 1092.177 508.284 L 1096.546 483.314 L 1071.406 483.314 L 1069.227 495.768 C 1068.565 499.182 1066.817 502.122 1063.971 504.579 C 1061.121 507.035 1058.015 508.262 1054.629 508.262 L 1063.359 458.365 C 1064.025 454.958 1065.793 452.024 1068.664 449.571 C 1071.529 447.119 1074.671 445.891 1078.079 445.891 L 1115.505 445.891 Z " fill="rgb(255,255,255)"/></g><g><path d=" M 714.99 545.27 C 714.668 547.134 713.719 548.737 712.139 550.079 C 710.562 551.418 708.808 552.089 706.887 552.089 L 700.019 552.089 L 696.51 572.537 C 696.148 574.404 695.192 576.009 693.634 577.353 C 692.08 578.695 690.379 579.369 688.531 579.369 L 693.302 552.089 L 679.664 552.089 C 680.028 550.227 680.995 548.624 682.564 547.281 C 684.131 545.942 685.848 545.27 687.711 545.27 L 714.99 545.27 Z " fill="rgb(255,255,255)"/><path d=" M 749.09 545.27 L 744.318 572.547 C 743.956 574.418 742.998 576.022 741.441 577.368 C 739.885 578.71 738.184 579.382 736.337 579.382 L 738.725 565.729 L 724.98 565.729 L 723.789 572.537 C 723.428 574.404 722.47 576.009 720.914 577.353 C 719.359 578.695 717.658 579.369 715.809 579.369 L 720.583 552.089 C 720.943 550.222 721.9 548.615 723.457 547.273 C 725.013 545.931 726.714 545.26 728.564 545.26 L 726.172 558.91 L 739.919 558.91 L 741.11 552.102 C 741.468 550.235 742.429 548.63 743.985 547.286 C 745.539 545.942 747.243 545.27 749.09 545.27 Z " fill="rgb(255,255,255)"/><path d=" M 783.187 545.27 C 782.869 547.134 781.919 548.737 780.345 550.079 C 778.769 551.418 777.02 552.089 775.102 552.089 L 761.398 552.089 L 760.271 558.91 L 773.982 558.91 C 773.662 560.774 772.716 562.375 771.143 563.716 C 769.57 565.06 767.829 565.729 765.914 565.729 L 759.079 565.729 L 757.885 572.547 L 778.415 572.547 C 778.049 574.414 777.084 576.016 775.517 577.356 C 773.946 578.7 772.231 579.369 770.366 579.369 L 749.906 579.369 L 754.679 552.089 C 755.043 550.227 756.01 548.624 757.579 547.281 C 759.148 545.942 760.863 545.27 762.728 545.27 L 783.187 545.27 Z " fill="rgb(255,255,255)"/></g><g><path d=" M 618.357 552.089 L 604.544 552.089 L 601.031 572.547 L 614.844 572.547 L 618.357 552.089 Z  M 626.333 545.27 L 621.561 572.547 C 621.195 574.414 620.23 576.016 618.663 577.356 C 617.095 578.7 615.379 579.369 613.515 579.369 L 593.053 579.369 L 597.827 552.089 C 598.189 550.227 599.156 548.624 600.725 547.281 C 602.294 545.942 604.009 545.27 605.874 545.27 L 626.333 545.27 Z " fill="rgb(255,255,255)"/><path d=" M 660.433 545.27 L 655.661 572.547 C 655.299 574.418 654.339 576.022 652.785 577.368 C 651.229 578.71 649.527 579.382 647.68 579.382 L 652.455 552.089 L 638.642 552.089 L 635.132 572.537 C 634.771 574.404 633.813 576.009 632.257 577.353 C 630.702 578.695 629 579.369 627.152 579.369 L 631.924 552.089 C 632.288 550.227 633.254 548.624 634.823 547.281 C 636.391 545.942 638.107 545.27 639.973 545.27 L 660.433 545.27 Z " fill="rgb(255,255,255)"/></g><g><path d=" M 837.649 538.002 L 812.383 538.002 L 810.325 550.477 L 835.467 550.477 L 837.649 538.002 Z  M 833.285 562.953 L 808.141 562.953 L 805.959 575.425 L 831.225 575.425 L 833.285 562.953 Z  M 852.244 525.528 L 850.004 538.005 C 849.425 541.421 847.704 544.349 844.848 546.807 C 841.989 549.264 838.861 550.489 835.467 550.489 L 833.285 562.953 L 845.695 562.953 L 843.511 575.425 C 842.846 578.834 841.08 581.767 838.211 584.219 C 835.342 586.675 832.202 587.899 828.793 587.899 L 791.368 587.899 L 800.097 538.002 C 800.763 534.591 802.53 531.661 805.399 529.21 C 808.268 526.755 811.406 525.528 814.816 525.528 L 852.244 525.528 Z " fill="rgb(255,255,255)"/><path d=" M 914.616 525.528 C 914.03 528.937 912.295 531.869 909.413 534.32 C 906.53 536.776 903.334 538.002 899.828 538.002 L 874.754 538.002 L 872.697 550.477 L 897.772 550.477 C 897.189 553.885 895.461 556.82 892.587 559.269 C 889.709 561.725 886.52 562.951 883.019 562.951 L 870.513 562.951 L 868.333 575.425 L 905.883 575.425 C 905.216 578.834 903.451 581.767 900.58 584.219 C 897.711 586.675 894.572 587.899 891.163 587.899 L 853.74 587.899 L 862.47 538.002 C 863.135 534.591 864.904 531.661 867.773 529.211 C 870.642 526.755 873.78 525.528 877.188 525.528 L 914.616 525.528 Z " fill="rgb(255,255,255)"/><path d=" M 962.395 538.002 L 937.128 538.002 L 935.071 550.477 L 960.213 550.477 L 962.395 538.002 Z  M 976.988 525.528 L 968.257 575.425 C 967.597 578.842 965.843 581.781 963 584.235 C 960.156 586.695 957.041 587.921 953.661 587.921 L 958.031 562.953 L 932.887 562.953 L 930.709 575.404 C 930.049 578.82 928.297 581.759 925.453 584.215 C 922.604 586.67 919.494 587.899 916.114 587.899 L 924.842 538.002 C 925.509 534.591 927.276 531.661 930.145 529.21 C 933.014 526.755 936.153 525.528 939.56 525.528 L 976.988 525.528 Z " fill="rgb(255,255,255)"/><path d=" M 1039.362 525.528 C 1038.777 528.937 1037.038 531.869 1034.157 534.32 C 1031.276 536.776 1028.079 538.002 1024.571 538.002 L 999.5 538.002 L 993.078 575.425 L 1030.629 575.425 C 1029.963 578.834 1028.197 581.767 1025.326 584.219 C 1022.459 586.675 1019.317 587.899 1015.908 587.899 L 978.486 587.899 L 987.216 538.002 C 987.881 534.591 989.65 531.661 992.519 529.211 C 995.388 526.755 998.523 525.528 1001.936 525.528 L 1039.362 525.528 Z " fill="rgb(255,255,255)"/><path d=" M 1101.735 525.528 L 1093.002 575.425 C 1092.343 578.842 1090.59 581.779 1087.746 584.235 C 1084.9 586.693 1081.782 587.921 1078.404 587.921 L 1082.776 562.951 L 1057.632 562.951 L 1055.455 575.404 C 1054.797 578.819 1053.043 581.761 1050.199 584.213 C 1047.352 586.67 1044.241 587.899 1040.86 587.899 L 1049.586 538.002 C 1050.247 534.587 1052 531.651 1054.846 529.193 C 1057.695 526.737 1060.806 525.508 1064.186 525.508 L 1059.816 550.477 L 1084.958 550.477 L 1087.136 538.022 C 1087.795 534.608 1089.547 531.671 1092.392 529.213 C 1095.24 526.759 1098.351 525.528 1101.735 525.528 Z " fill="rgb(255,255,255)"/></g><g><path d=" M 1092.988 622.593 L 1092.988 622.593 L 1088.181 650.609 L 1086.939 659.932 C 1089.266 659.802 1091.423 658.892 1093.406 657.194 C 1095.556 655.358 1096.876 653.165 1097.377 650.609 L 1103.913 613.254 L 1103.913 613.254 L 1094.461 613.254 C 1091.908 613.254 1089.559 614.173 1087.409 616.006 C 1085.547 617.604 1084.304 620.299 1083.684 622.43 L 1089.783 622.43 L 1092.988 622.593 Z " fill="rgb(255,255,255)"/><path d=" M 985.96 613.254 L 982.693 631.933 C 982.254 634.484 980.959 636.682 978.81 638.515 C 976.658 640.353 974.273 641.269 971.654 641.269 L 952.943 641.269 L 951.311 650.609 L 970.057 650.609 C 972.303 650.609 974.161 651.344 975.631 652.805 C 977.1 654.267 977.833 656.121 977.833 658.36 C 977.833 658.861 977.802 659.388 977.742 659.948 L 940.386 659.948 L 943.65 641.269 C 944.088 638.72 945.383 636.524 947.531 634.687 C 949.684 632.849 952.071 631.933 954.692 631.933 L 973.4 631.933 L 975.037 622.593 L 946.922 622.593 C 947.42 620.04 948.743 617.848 950.891 616.006 C 953.038 614.173 955.389 613.254 957.942 613.254 L 985.96 613.254 Z " fill="rgb(255,255,255)"/><path d=" M 1021.731 622.593 L 1002.814 622.593 L 998.007 650.609 L 1016.923 650.609 L 1021.731 622.593 Z  M 1032.656 613.254 L 1026.12 650.609 C 1025.619 653.165 1024.299 655.358 1022.149 657.194 C 1020.001 659.032 1017.65 659.948 1015.099 659.948 L 987.082 659.948 L 993.618 622.593 C 994.114 620.04 995.437 617.848 997.584 616.006 C 999.734 614.173 1002.083 613.254 1004.636 613.254 L 1032.656 613.254 Z " fill="rgb(255,255,255)"/><path d=" M 1078.229 613.254 L 1074.962 631.933 C 1074.524 634.484 1073.229 636.682 1071.081 638.515 C 1068.928 640.353 1066.543 641.269 1063.924 641.269 L 1045.212 641.269 L 1043.581 650.609 L 1062.326 650.609 C 1064.572 650.609 1066.433 651.344 1067.9 652.805 C 1069.369 654.267 1070.102 656.121 1070.102 658.36 C 1070.102 658.861 1070.072 659.388 1070.011 659.948 L 1032.656 659.948 L 1035.919 641.269 C 1036.358 638.72 1037.654 636.524 1039.802 634.687 C 1041.954 632.849 1044.341 631.933 1046.961 631.933 L 1065.669 631.933 L 1067.306 622.593 L 1039.191 622.593 C 1039.689 620.04 1041.013 617.848 1043.161 616.006 C 1045.307 614.173 1047.658 613.254 1050.211 613.254 L 1078.229 613.254 Z " fill="rgb(255,255,255)"/></g></g></svg>