<?xml version="1.0" encoding="UTF-8" standalone="no"?><!-- Generator: Gravit.io --><svg xmlns="http://www.w3.org/2000/svg" xmlns:xlink="http://www.w3.org/1999/xlink" style="isolation:isolate" viewBox="0 0 512 512" width="512pt" height="512pt"><defs><clipPath id="_clipPath_4jH9E0gLRRCe4GB0ASJaqCP9wETaubNV"><rect width="512" height="512"/></clipPath></defs><g clip-path="url(#_clipPath_4jH9E0gLRRCe4GB0ASJaqCP9wETaubNV)"><g><g style="opacity:0.91;"><g opacity="0.91"><path d=" M 435.405 120.21 C 485.808 182.503 507.169 268.999 483.599 334.239 C 459.923 399.373 391.316 443.357 326.286 462.087 C 261.362 480.712 200.016 474.083 139.827 450.618 C 79.533 427.258 20.396 386.956 7.769 335.186 C -4.858 283.309 29.13 219.858 73.219 158.933 C 117.309 98.008 171.605 39.607 238.528 29.611 C 305.452 19.509 385.002 57.811 435.405 120.21 Z " fill="rgb(140,198,63)" fill-opacity="0.2"/></g><g opacity="0.91"><path d=" M 303.836 96.998 C 356.705 138.416 399.777 181.446 421.537 245.945 C 443.296 310.444 443.428 396.366 400.488 438.809 C 357.684 481.208 271.537 480.216 207.647 456.543 C 143.893 432.825 102.44 386.56 74.247 335.584 C 46.099 284.743 31.345 229.146 42.029 168.53 C 52.758 108.048 89.194 42.459 138.634 29.454 C 188.208 16.404 250.876 55.76 303.836 96.998 Z " fill="rgb(0,169,157)" fill-opacity="0.2"/></g><g opacity="0.91"><linearGradient id="_lgradient_3" x1="-0.6071092832425671" y1="2.149348551068635" x2="1.2409602025515585" y2="0.5696796763521808" gradientTransform="matrix(385.866,0,0,346.433,82.61,54.433)" gradientUnits="userSpaceOnUse"><stop offset="0%" stop-opacity="1" style="stop-color:rgb(140,198,63)"/><stop offset="0%" stop-opacity="1" style="stop-color:rgb(140,198,63)"/><stop offset="95.65217391304348%" stop-opacity="1" style="stop-color:rgb(0,169,157)"/><stop offset="100%" stop-opacity="1" style="stop-color:rgb(0,169,157)"/></linearGradient><path d=" M 386.412 99.715 C 443.547 143.805 478.375 216.474 465.975 273.2 C 459.471 302.846 440.049 328.115 415.931 348.015 C 393.981 366.125 368.142 379.787 344.611 388.253 C 295.299 405.895 256.077 400.771 207.457 397.893 C 158.862 395.115 100.643 394.534 86.374 369.705 C 72.08 344.776 101.611 295.525 122.86 233.934 C 144.135 172.443 157.103 98.512 203.32 69.352 C 249.636 40.166 329.178 55.651 386.412 99.715 Z " fill="url(#_lgradient_3)" fill-opacity="0.2"/></g><g opacity="0.91"><linearGradient id="_lgradient_4" x1="-0.8251861188633312" y1="-0.7932213492706575" x2="1.2484617036833283" y2="0.1783356868316106" gradientTransform="matrix(488.076,0,0,395.92,10.893,54.433)" gradientUnits="userSpaceOnUse"><stop offset="0%" stop-opacity="1" style="stop-color:rgb(140,198,63)"/><stop offset="0%" stop-opacity="1" style="stop-color:rgb(140,198,63)"/><stop offset="95.65217391304348%" stop-opacity="1" style="stop-color:rgb(0,169,157)"/><stop offset="100%" stop-opacity="1" style="stop-color:rgb(0,169,157)"/></linearGradient><path d=" M 486.995 97.676 C 476.677 76.332 457.086 58.424 433.622 55.044 C 405.257 50.959 378.305 68.01 356.531 86.639 C 334.753 105.268 313.9 126.936 286.475 135.251 C 237.418 150.117 186.632 117.642 135.372 117.312 C 101.904 117.099 68.595 131.482 45.804 155.994 C -39.106 247.314 45.586 393.869 142.876 434.097 C 221.422 466.578 315.53 448.226 384.265 398.226 C 449.824 350.532 490.196 266.812 497.699 186.054 C 498.29 179.709 498.676 173.385 498.858 167.097 C 499.535 143.401 497.316 119.016 486.995 97.676 Z " fill="url(#_lgradient_4)"/></g><g opacity="0.45"><linearGradient id="_lgradient_5" x1="0.960161598804973" y1="2.2718757843238238" x2="0.31119255853725925" y2="-0.886002217021451" gradientTransform="matrix(59.545,0,0,56.49,192.886,50.229)" gradientUnits="userSpaceOnUse"><stop offset="0%" stop-opacity="1" style="stop-color:rgb(140,198,63)"/><stop offset="34.70102907830618%" stop-opacity="1" style="stop-color:rgb(140,198,63)"/><stop offset="95.65217391304348%" stop-opacity="1" style="stop-color:rgb(0,169,157)"/><stop offset="100%" stop-opacity="1" style="stop-color:rgb(0,169,157)"/></linearGradient><path d=" M 244.458 63.152 C 250.202 70.239 253.739 79.212 251.977 87.001 C 250.202 94.791 243.152 101.373 235.252 104.528 C 227.363 107.671 218.625 107.375 210.959 104.01 C 203.292 100.645 196.698 94.212 194.122 85.991 C 191.546 77.758 193.001 67.75 198.449 60.737 C 203.896 53.711 213.337 49.705 222.039 50.285 C 230.74 50.876 238.715 56.065 244.458 63.152 Z " fill="url(#_lgradient_5)"/></g><g opacity="0.41"><radialGradient id="_rgradient_1" fx="1.0036712128376308" fy="0.4980477436646211" cx="0.5" cy="0.5" r="366.4174541562378" gradientTransform="matrix(44.816,-80.915,73.531,40.727,292.147,468.553)" gradientUnits="userSpaceOnUse"><stop offset="0%" stop-opacity="1" style="stop-color:rgb(0,169,157)"/><stop offset="100%" stop-opacity="1" style="stop-color:rgb(140,198,63)"/></radialGradient><path d=" M 383.241 416.594 C 396.019 418.707 405.747 424.225 405.845 432.694 C 405.921 441.173 396.399 452.562 384.027 461.464 C 371.67 470.344 356.459 476.725 341.861 479.482 C 327.264 482.239 313.28 481.371 305.516 475.809 C 297.746 470.236 296.222 459.971 302.802 449.406 C 309.378 438.831 335.653 439.559 350.916 433.465 C 366.183 427.383 370.463 414.481 383.241 416.594 Z " fill="url(#_rgradient_1)"/></g></g><g><g><path d=" M 463.713 318.84 L 455.364 320.028 L 456.558 328.382 L 464.903 327.182 L 463.713 318.84 Z " fill="rgb(140,198,63)"/></g><g><path d=" M 456.558 328.382 L 448.213 329.567 L 449.397 337.909 L 457.747 336.726 L 456.558 328.382 Z " fill="rgb(140,198,63)"/></g><g><path d=" M 445.772 312.837 L 437.435 314.021 L 442.238 347.442 L 450.585 346.263 L 445.772 312.837 Z " fill="rgb(140,198,63)"/></g><g><path d=" M 471.122 308.976 L 462.771 310.163 L 463.954 318.505 L 472.302 317.316 L 471.122 308.976 Z " fill="rgb(140,198,63)"/></g><g><path d=" M 478.538 299.085 L 470.196 300.266 L 471.383 308.615 L 479.735 307.427 L 478.538 299.085 Z " fill="rgb(140,198,63)"/></g><g><path d=" M 485.96 289.192 L 477.612 290.384 L 478.796 298.73 L 487.142 297.542 L 485.96 289.192 Z " fill="rgb(140,198,63)"/></g><g><path d=" M 493.271 279.434 L 484.929 280.627 L 486.115 288.985 L 494.463 287.788 L 493.271 279.434 Z " fill="rgb(140,198,63)"/></g><g><path d=" M 425.18 289.706 L 416.83 290.893 L 418.023 299.241 L 426.377 298.053 L 425.18 289.706 Z " fill="rgb(140,198,63)"/></g><g><path d=" M 501.478 278.399 L 500.286 270.056 L 405.186 284.272 L 406.382 292.616 L 501.478 278.399 Z " fill="rgb(140,198,63)"/></g><g><path d=" M 434.847 296.835 L 426.509 298.036 L 430.307 323.481 L 438.65 322.296 L 434.847 296.835 Z " fill="rgb(140,198,63)"/></g><g><path d=" M 404.903 327.877 L 387.772 330.318 L 390.212 347.453 L 407.347 345.01 L 404.903 327.877 Z " fill="rgb(140,198,63)"/></g><g><path d=" M 420.566 316.23 L 403.439 318.673 L 405.877 335.803 L 423.01 333.365 L 420.566 316.23 Z " fill="rgb(140,198,63)"/></g><g><path d=" M 436.301 305.19 L 419.171 307.655 L 421.611 324.776 L 438.742 322.331 L 436.301 305.19 Z " fill="rgb(140,198,63)"/></g><g><path d=" M 471.231 197.758 L 461.742 202.53 L 456.969 193.049 L 466.45 188.276 L 471.231 197.758 Z " fill="rgb(255,255,255)"/></g><g><clipPath id="_clipPath_TBphokWa4EkiXoRF5XABcuS2a4GlnHPK"><path d=" M 57.635 182.463 L 509.829 182.463 L 509.829 353.992 L 57.635 353.992 L 57.635 182.463 Z " fill="rgb(255,255,255)"/></clipPath><g clip-path="url(#_clipPath_TBphokWa4EkiXoRF5XABcuS2a4GlnHPK)"><g><g><g><path d=" M 82.872 275.006 L 74.712 275.006 L 72.637 287.092 L 80.797 287.092 L 82.872 275.006 Z  M 87.584 270.978 L 84.765 287.092 C 84.549 288.195 83.979 289.141 83.053 289.933 C 82.127 290.727 81.113 291.122 80.012 291.122 L 67.924 291.122 L 70.744 275.006 C 70.958 273.906 71.529 272.959 72.456 272.166 C 73.383 271.375 74.396 270.978 75.498 270.978 L 87.584 270.978 Z " fill="rgb(255,255,255)"/></g><g><path d=" M 107.729 270.978 L 104.91 287.092 C 104.696 288.197 104.129 289.145 103.211 289.94 C 102.292 290.733 101.286 291.13 100.195 291.13 L 103.016 275.006 L 94.856 275.006 L 92.782 287.086 C 92.569 288.189 92.003 289.137 91.084 289.931 C 90.165 290.724 89.16 291.122 88.068 291.122 L 90.887 275.006 C 91.102 273.906 91.673 272.959 92.6 272.166 C 93.526 271.375 94.54 270.978 95.642 270.978 L 107.729 270.978 Z " fill="rgb(255,255,255)"/></g><g><path d=" M 139.959 270.978 C 139.769 272.079 139.208 273.026 138.275 273.819 C 137.343 274.61 136.307 275.006 135.172 275.006 L 131.115 275.006 L 129.042 287.086 C 128.828 288.189 128.263 289.137 127.343 289.931 C 126.425 290.724 125.42 291.122 124.328 291.122 L 127.147 275.006 L 119.09 275.006 C 119.305 273.906 119.876 272.959 120.803 272.166 C 121.729 271.375 122.743 270.978 123.844 270.978 L 139.959 270.978 Z " fill="rgb(255,255,255)"/></g><g><path d=" M 160.104 270.978 L 157.285 287.092 C 157.071 288.197 156.505 289.145 155.585 289.94 C 154.666 290.733 153.661 291.13 152.57 291.13 L 153.981 283.064 L 145.861 283.064 L 145.157 287.086 C 144.944 288.189 144.378 289.137 143.459 289.931 C 142.54 290.724 141.535 291.122 140.443 291.122 L 143.263 275.006 C 143.476 273.903 144.041 272.954 144.961 272.161 C 145.88 271.368 146.885 270.972 147.978 270.972 L 146.565 279.036 L 154.686 279.036 L 155.39 275.014 C 155.601 273.911 156.169 272.963 157.088 272.169 C 158.006 271.375 159.013 270.978 160.104 270.978 Z " fill="rgb(255,255,255)"/></g><g><path d=" M 180.247 270.978 C 180.059 272.079 179.498 273.026 178.568 273.819 C 177.637 274.61 176.604 275.006 175.471 275.006 L 167.375 275.006 L 166.709 279.036 L 174.809 279.036 C 174.62 280.137 174.061 281.083 173.132 281.875 C 172.203 282.669 171.174 283.064 170.043 283.064 L 166.005 283.064 L 165.3 287.092 L 177.428 287.092 C 177.212 288.195 176.642 289.141 175.716 289.933 C 174.788 290.727 173.775 291.122 172.673 291.122 L 160.586 291.122 L 163.406 275.006 C 163.621 273.906 164.192 272.959 165.119 272.166 C 166.046 271.375 167.059 270.978 168.161 270.978 L 180.247 270.978 Z " fill="rgb(255,255,255)"/></g><g><path d=" M 425.838 275.068 L 433.355 276.866 L 444.112 244.472 L 468.225 253.053 L 463.301 267.818 L 470.271 271.142 L 478.882 247.518 L 462.025 241.082 L 465.893 230.084 L 482.087 235.399 L 485.122 227.816 L 468.442 222.051 L 473.537 208.189 L 451.105 200.023 L 418.935 214.972 L 422.196 222.836 L 446.524 211.188 L 425.838 275.068 Z " fill="rgb(255,255,255)"/></g><g><path d=" M 103.899 212.269 C 103.553 214.284 102.529 216.015 100.825 217.464 C 99.122 218.915 97.233 219.638 95.162 219.638 L 80.351 219.638 L 76.557 241.746 L 98.739 241.746 C 98.346 243.76 97.303 245.493 95.608 246.942 C 93.913 248.392 92.057 249.116 90.044 249.116 L 67.937 249.116 L 73.094 219.638 C 73.487 217.625 74.53 215.892 76.226 214.443 C 77.92 212.994 79.774 212.269 81.79 212.269 L 103.899 212.269 Z " fill="rgb(255,255,255)"/></g><g><path d=" M 132.125 219.638 L 117.198 219.638 L 113.404 241.746 L 128.33 241.746 L 132.125 219.638 Z  M 140.745 212.269 L 135.588 241.746 C 135.194 243.76 134.151 245.493 132.456 246.942 C 130.761 248.392 128.906 249.115 126.892 249.115 L 104.783 249.115 L 109.941 219.638 C 110.333 217.625 111.377 215.892 113.072 214.443 C 114.767 212.994 116.621 212.269 118.636 212.269 L 140.745 212.269 Z " fill="rgb(255,255,255)"/></g><g><path d=" M 184.962 212.269 L 179.804 241.746 C 179.413 243.765 178.378 245.501 176.697 246.951 C 175.016 248.404 173.177 249.128 171.18 249.128 L 176.34 219.638 L 168.896 219.638 L 165.064 241.746 C 164.671 243.76 163.63 245.495 161.937 246.943 C 160.244 248.394 158.393 249.118 156.383 249.118 L 161.567 219.638 L 154.044 219.638 L 150.252 241.734 C 149.862 243.751 148.827 245.488 147.146 246.939 C 145.465 248.39 143.627 249.116 141.629 249.116 L 146.787 219.638 C 147.18 217.625 148.224 215.892 149.918 214.443 C 151.614 212.994 153.469 212.269 155.484 212.269 L 162.854 212.269 L 161.567 219.638 L 168.923 219.638 C 169.316 217.625 170.357 215.892 172.05 214.443 C 173.742 212.994 175.594 212.269 177.605 212.269 L 184.962 212.269 Z " fill="rgb(255,255,255)"/></g><g><path d=" M 213.188 219.638 L 198.262 219.638 L 197.045 227.008 L 211.898 227.008 L 213.188 219.638 Z  M 221.809 212.269 L 219.229 227.008 C 218.884 229.022 217.863 230.755 216.166 232.203 C 214.468 233.653 212.586 234.377 210.519 234.377 L 195.756 234.377 L 194.469 241.734 C 194.08 243.751 193.044 245.488 191.363 246.939 C 189.681 248.39 187.845 249.115 185.846 249.115 L 191.004 219.638 C 191.397 217.625 192.441 215.892 194.135 214.443 C 195.831 212.994 197.684 212.269 199.698 212.269 L 221.809 212.269 Z " fill="rgb(255,255,255)"/></g><g><path d=" M 258.657 212.269 L 253.497 241.746 C 253.104 243.76 252.062 245.493 250.367 246.942 C 248.672 248.392 246.817 249.116 244.802 249.116 L 222.693 249.116 L 227.851 219.638 C 228.24 217.621 229.275 215.885 230.956 214.434 C 232.637 212.984 234.475 212.257 236.474 212.257 L 231.315 241.746 L 246.24 241.746 L 250.032 219.649 C 250.422 217.634 251.457 215.899 253.138 214.446 C 254.819 212.996 256.658 212.269 258.657 212.269 Z " fill="rgb(255,255,255)"/></g><g><path d=" M 302.874 212.269 C 302.527 214.284 301.499 216.015 299.793 217.464 C 298.087 218.915 296.193 219.638 294.115 219.638 L 286.694 219.638 L 282.902 241.734 C 282.512 243.751 281.477 245.488 279.796 246.939 C 278.115 248.39 276.276 249.116 274.28 249.116 L 279.438 219.638 L 264.7 219.638 C 265.093 217.625 266.135 215.892 267.83 214.443 C 269.526 212.994 271.379 212.269 273.395 212.269 L 302.874 212.269 Z " fill="rgb(255,255,255)"/></g><g><path d=" M 339.721 212.269 C 339.375 214.284 338.348 216.015 336.647 217.464 C 334.942 218.915 333.055 219.638 330.984 219.638 L 316.172 219.638 L 314.957 227.009 L 329.77 227.009 C 329.426 229.022 328.404 230.755 326.707 232.203 C 325.006 233.653 323.122 234.377 321.055 234.377 L 313.666 234.377 L 312.379 241.746 L 334.562 241.746 C 334.167 243.76 333.125 245.493 331.429 246.942 C 329.735 248.392 327.878 249.116 325.865 249.116 L 303.758 249.116 L 308.915 219.638 C 309.307 217.625 310.352 215.892 312.047 214.443 C 313.742 212.994 315.596 212.269 317.61 212.269 L 339.721 212.269 Z " fill="rgb(255,255,255)"/></g><g><path d=" M 367.947 219.638 L 353.02 219.638 L 351.805 227.008 L 366.657 227.008 L 367.947 219.638 Z  M 376.567 212.269 L 375.245 219.641 C 374.902 221.657 373.886 223.388 372.199 224.84 C 370.51 226.29 368.663 227.014 366.657 227.014 L 365.367 234.377 L 372.699 234.377 L 371.409 241.746 C 371.019 243.765 369.985 245.501 368.304 246.951 C 366.623 248.403 364.783 249.128 362.786 249.128 L 365.367 234.377 L 350.515 234.377 L 349.228 241.734 C 348.837 243.751 347.804 245.488 346.123 246.939 C 344.439 248.39 342.604 249.115 340.604 249.115 L 345.761 219.638 C 346.155 217.625 347.199 215.892 348.895 214.443 C 350.588 212.994 352.444 212.269 354.457 212.269 L 376.567 212.269 Z " fill="rgb(255,255,255)"/></g><g><path d=" M 212.421 266.684 L 197.495 266.684 L 196.279 274.054 L 211.132 274.054 L 212.421 266.684 Z  M 209.843 281.424 L 194.989 281.424 L 193.7 288.792 L 208.626 288.792 L 209.843 281.424 Z  M 221.043 259.315 L 219.72 266.686 C 219.378 268.704 218.361 270.434 216.674 271.886 C 214.985 273.337 213.137 274.061 211.132 274.061 L 209.843 281.424 L 217.174 281.424 L 215.884 288.792 C 215.491 290.806 214.448 292.539 212.753 293.987 C 211.058 295.438 209.203 296.161 207.189 296.161 L 185.08 296.161 L 190.237 266.684 C 190.63 264.669 191.674 262.938 193.369 261.49 C 195.064 260.04 196.918 259.315 198.932 259.315 L 221.043 259.315 Z " fill="rgb(255,255,255)"/></g><g><path d=" M 257.89 259.315 C 257.544 261.329 256.519 263.061 254.816 264.509 C 253.113 265.96 251.225 266.684 249.154 266.684 L 234.341 266.684 L 233.126 274.054 L 247.939 274.054 C 247.595 276.067 246.574 277.801 244.876 279.248 C 243.176 280.699 241.292 281.423 239.224 281.423 L 231.836 281.423 L 230.548 288.792 L 252.731 288.792 C 252.337 290.806 251.294 292.539 249.598 293.987 C 247.903 295.438 246.049 296.161 244.035 296.161 L 221.927 296.161 L 227.084 266.684 C 227.477 264.669 228.522 262.938 230.217 261.491 C 231.912 260.04 233.766 259.315 235.779 259.315 L 257.89 259.315 Z " fill="rgb(255,255,255)"/></g><g><path d=" M 286.116 266.684 L 271.189 266.684 L 269.974 274.054 L 284.827 274.054 L 286.116 266.684 Z  M 294.737 259.315 L 289.579 288.792 C 289.189 290.811 288.153 292.547 286.473 293.997 C 284.793 295.45 282.953 296.174 280.956 296.174 L 283.538 281.424 L 268.684 281.424 L 267.397 288.78 C 267.007 290.798 265.972 292.534 264.292 293.985 C 262.609 295.435 260.772 296.161 258.775 296.161 L 263.931 266.684 C 264.325 264.669 265.369 262.938 267.064 261.49 C 268.759 260.04 270.613 259.315 272.626 259.315 L 294.737 259.315 Z " fill="rgb(255,255,255)"/></g><g><path d=" M 331.585 259.315 C 331.239 261.329 330.212 263.061 328.51 264.509 C 326.808 265.96 324.919 266.684 322.847 266.684 L 308.036 266.684 L 304.242 288.792 L 326.426 288.792 C 326.032 290.806 324.989 292.539 323.293 293.987 C 321.599 295.438 319.743 296.161 317.729 296.161 L 295.622 296.161 L 300.779 266.684 C 301.172 264.669 302.217 262.938 303.912 261.491 C 305.607 260.04 307.459 259.315 309.475 259.315 L 331.585 259.315 Z " fill="rgb(255,255,255)"/></g><g><path d=" M 368.432 259.315 L 363.273 288.792 C 362.884 290.811 361.848 292.546 360.168 293.997 C 358.487 295.449 356.645 296.174 354.649 296.174 L 357.232 281.423 L 342.378 281.423 L 341.092 288.78 C 340.703 290.797 339.667 292.535 337.987 293.984 C 336.305 295.435 334.467 296.161 332.47 296.161 L 337.625 266.684 C 338.015 264.667 339.051 262.932 340.732 261.48 C 342.415 260.029 344.253 259.303 346.25 259.303 L 343.668 274.054 L 358.521 274.054 L 359.808 266.696 C 360.197 264.679 361.232 262.944 362.913 261.492 C 364.595 260.042 366.433 259.315 368.432 259.315 Z " fill="rgb(255,255,255)"/></g></g></g></g></g></g><g><path d=" M 288.287 311.14 L 286.357 322.175 C 286.098 323.682 285.333 324.98 284.063 326.063 C 282.792 327.149 281.383 327.69 279.836 327.69 L 268.782 327.69 L 267.818 333.208 L 278.892 333.208 C 280.219 333.208 281.317 333.642 282.185 334.505 C 283.053 335.369 283.486 336.464 283.486 337.787 C 283.486 338.083 283.468 338.394 283.432 338.725 L 261.364 338.725 L 263.292 327.69 C 263.551 326.184 264.316 324.887 265.585 323.802 C 266.857 322.716 268.267 322.175 269.815 322.175 L 280.867 322.175 L 281.834 316.657 L 265.225 316.657 C 265.519 315.149 266.301 313.854 267.57 312.766 C 268.838 311.683 270.227 311.14 271.735 311.14 L 288.287 311.14 Z " fill="rgb(255,255,255)"/><path d=" M 309.419 316.657 L 298.244 316.657 L 295.404 333.208 L 306.579 333.208 L 309.419 316.657 Z  M 315.873 311.14 L 312.012 333.208 C 311.716 334.718 310.936 336.013 309.666 337.098 C 308.397 338.184 307.008 338.725 305.501 338.725 L 288.95 338.725 L 292.811 316.657 C 293.104 315.149 293.886 313.854 295.154 312.766 C 296.424 311.683 297.812 311.14 299.32 311.14 L 315.873 311.14 Z " fill="rgb(255,255,255)"/><path d=" M 342.796 311.14 L 340.866 322.175 C 340.607 323.682 339.842 324.98 338.573 326.063 C 337.301 327.149 335.892 327.69 334.345 327.69 L 323.291 327.69 L 322.327 333.208 L 333.401 333.208 C 334.728 333.208 335.827 333.642 336.694 334.505 C 337.562 335.369 337.995 336.464 337.995 337.787 C 337.995 338.083 337.977 338.394 337.941 338.725 L 315.873 338.725 L 317.801 327.69 C 318.06 326.184 318.826 324.887 320.095 323.802 C 321.366 322.716 322.776 322.175 324.324 322.175 L 335.376 322.175 L 336.343 316.657 L 319.734 316.657 C 320.028 315.149 320.81 313.854 322.079 312.766 C 323.347 311.683 324.736 311.14 326.244 311.14 L 342.796 311.14 Z " fill="rgb(255,255,255)"/><path d=" M 363.928 316.657 L 352.754 316.657 L 349.913 333.208 L 361.088 333.208 L 363.928 316.657 Z  M 370.382 311.14 L 366.521 333.208 C 366.225 334.718 365.445 336.013 364.176 337.098 C 362.907 338.184 361.518 338.725 360.01 338.725 L 343.459 338.725 L 347.32 316.657 C 347.614 315.149 348.395 313.854 349.663 312.766 C 350.933 311.683 352.322 311.14 353.829 311.14 L 370.382 311.14 Z " fill="rgb(255,255,255)"/></g><path d=" M 287.38 383.076 L 287.38 383.076 L 287.38 383.076 Q 287.38 383.553 287.766 383.928 L 287.766 383.928 L 287.766 383.928 Q 288.152 384.303 288.788 384.303 L 288.788 384.303 L 288.788 384.303 Q 289.402 384.303 290.027 384.03 L 290.027 384.03 L 290.027 384.03 Q 290.651 383.757 291.219 383.212 L 291.219 383.212 L 291.219 381.531 L 288.993 381.531 L 288.993 381.531 Q 288.22 381.531 287.8 382.008 L 287.8 382.008 L 287.8 382.008 Q 287.38 382.485 287.38 383.076 Z  M 288.834 386.643 L 288.834 386.643 L 288.834 386.643 Q 286.812 386.643 285.835 385.654 L 285.835 385.654 L 285.835 385.654 Q 284.858 384.666 284.858 383.076 L 284.858 383.076 L 284.858 383.076 Q 284.858 381.372 286.017 380.463 L 286.017 380.463 L 286.017 380.463 Q 287.175 379.554 289.038 379.554 L 289.038 379.554 L 291.197 379.554 L 291.197 379.554 Q 291.174 378.714 290.708 378.248 L 290.708 378.248 L 290.708 378.248 Q 290.242 377.782 289.424 377.782 L 289.424 377.782 L 289.424 377.782 Q 288.652 377.782 287.743 377.998 L 287.743 377.998 L 287.743 377.998 Q 286.834 378.214 286.221 378.509 L 286.221 378.509 L 285.426 376.055 L 285.426 376.055 Q 286.062 375.624 287.368 375.34 L 287.368 375.34 L 287.368 375.34 Q 288.675 375.056 289.379 375.056 L 289.379 375.056 L 289.379 375.056 Q 291.356 375.056 292.764 376.203 L 292.764 376.203 L 292.764 376.203 Q 294.173 377.35 294.173 379.123 L 294.173 379.123 L 294.173 386.37 L 292.651 386.37 L 291.924 385.439 L 291.924 385.439 Q 291.31 385.916 290.481 386.279 L 290.481 386.279 L 290.481 386.279 Q 289.652 386.643 288.834 386.643 Z  M 297.058 370.58 L 299.989 370.33 L 299.989 375.692 L 299.989 375.692 Q 300.648 375.328 301.386 375.124 L 301.386 375.124 L 301.386 375.124 Q 302.125 374.919 302.715 374.919 L 302.715 374.919 L 302.715 374.919 Q 305.146 374.919 306.441 376.601 L 306.441 376.601 L 306.441 376.601 Q 307.736 378.282 307.736 380.781 L 307.736 380.781 L 307.736 380.781 Q 307.736 383.28 306.407 384.961 L 306.407 384.961 L 306.407 384.961 Q 305.078 386.643 302.715 386.643 L 302.715 386.643 L 302.715 386.643 Q 301.943 386.643 300.989 386.325 L 300.989 386.325 L 300.989 386.325 Q 300.034 386.006 299.285 385.439 L 299.285 385.439 L 298.558 386.37 L 297.058 386.37 L 297.058 370.58 Z  M 301.943 384.121 L 301.943 384.121 L 301.943 384.121 Q 303.465 384.121 304.078 383.019 L 304.078 383.019 L 304.078 383.019 Q 304.692 381.917 304.692 380.781 L 304.692 380.781 L 304.692 380.781 Q 304.692 379.486 304.147 378.464 L 304.147 378.464 L 304.147 378.464 Q 303.601 377.441 301.943 377.441 L 301.943 377.441 L 301.943 377.441 Q 301.466 377.441 300.955 377.612 L 300.955 377.612 L 300.955 377.612 Q 300.443 377.782 299.989 378.077 L 299.989 378.077 L 299.989 383.485 L 299.989 383.485 Q 300.443 383.757 300.955 383.939 L 300.955 383.939 L 300.955 383.939 Q 301.466 384.121 301.943 384.121 Z  M 316.142 375.351 L 316.142 375.351 L 316.733 377.714 L 316.733 377.714 Q 315.983 377.714 314.995 378.146 L 314.995 378.146 L 314.995 378.146 Q 314.007 378.577 313.053 379.418 L 313.053 379.418 L 313.053 386.37 L 310.099 386.37 L 310.099 375.351 L 311.644 375.351 L 312.621 376.964 L 312.621 376.964 Q 313.303 376.373 314.279 375.862 L 314.279 375.862 L 314.279 375.862 Q 315.256 375.351 316.142 375.351 Z  M 319.709 370.466 L 319.709 370.466 L 319.709 370.466 Q 320.414 370.466 320.902 370.944 L 320.902 370.944 L 320.902 370.944 Q 321.391 371.421 321.391 372.125 L 321.391 372.125 L 321.391 372.125 Q 321.391 372.829 320.902 373.306 L 320.902 373.306 L 320.902 373.306 Q 320.414 373.783 319.709 373.783 L 319.709 373.783 L 319.709 373.783 Q 319.028 373.783 318.551 373.306 L 318.551 373.306 L 318.551 373.306 Q 318.074 372.829 318.074 372.125 L 318.074 372.125 L 318.074 372.125 Q 318.074 371.421 318.551 370.944 L 318.551 370.944 L 318.551 370.944 Q 319.028 370.466 319.709 370.466 Z  M 318.233 375.351 L 321.186 375.351 L 321.186 386.37 L 318.233 386.37 L 318.233 375.351 Z  M 324.208 370.58 L 327.139 370.33 L 327.139 386.37 L 324.208 386.37 L 324.208 370.58 Z  M 259.321 377.441 L 259.321 377.441 L 259.321 377.441 Q 257.776 377.441 257.174 378.532 L 257.174 378.532 L 257.174 378.532 Q 256.572 379.622 256.572 380.781 L 256.572 380.781 L 256.572 380.781 Q 256.572 382.076 257.117 383.098 L 257.117 383.098 L 257.117 383.098 Q 257.663 384.121 259.321 384.121 L 259.321 384.121 L 259.321 384.121 Q 259.844 384.121 260.423 383.882 L 260.423 383.882 L 260.423 383.882 Q 261.002 383.644 261.502 383.326 L 261.502 383.326 L 261.502 378.236 L 261.502 378.236 Q 261.002 377.896 260.423 377.668 L 260.423 377.668 L 260.423 377.668 Q 259.844 377.441 259.321 377.441 Z  M 261.502 370.58 L 264.479 370.33 L 264.479 386.37 L 262.934 386.37 L 262.116 385.302 L 262.116 385.302 Q 261.366 385.938 260.355 386.29 L 260.355 386.29 L 260.355 386.29 Q 259.344 386.643 258.526 386.643 L 258.526 386.643 L 258.526 386.643 Q 256.118 386.643 254.823 384.961 L 254.823 384.961 L 254.823 384.961 Q 253.528 383.28 253.528 380.781 L 253.528 380.781 L 253.528 380.781 Q 253.528 378.282 254.902 376.601 L 254.902 376.601 L 254.902 376.601 Q 256.277 374.919 258.662 374.919 L 258.662 374.919 L 258.662 374.919 Q 259.276 374.919 260.048 375.135 L 260.048 375.135 L 260.048 375.135 Q 260.821 375.351 261.502 375.737 L 261.502 375.737 L 261.502 370.58 Z  M 273.135 386.643 L 273.135 386.643 L 273.135 386.643 Q 270.272 386.643 268.625 385.075 L 268.625 385.075 L 268.625 385.075 Q 266.978 383.507 266.978 380.872 L 266.978 380.872 L 266.978 380.872 Q 266.978 378.236 268.466 376.646 L 268.466 376.646 L 268.466 376.646 Q 269.954 375.056 272.521 375.056 L 272.521 375.056 L 272.521 375.056 Q 275.111 375.056 276.327 376.771 L 276.327 376.771 L 276.327 376.771 Q 277.542 378.486 277.542 380.826 L 277.542 380.826 L 277.542 381.735 L 270.113 381.735 L 270.113 381.735 Q 270.317 382.826 271.113 383.473 L 271.113 383.473 L 271.113 383.473 Q 271.908 384.121 273.203 384.121 L 273.203 384.121 L 273.203 384.121 Q 273.953 384.121 274.555 383.928 L 274.555 383.928 L 274.555 383.928 Q 275.157 383.735 275.952 383.371 L 275.952 383.371 L 276.815 385.507 L 276.815 385.507 Q 276.043 386.097 274.941 386.37 L 274.941 386.37 L 274.941 386.37 Q 273.839 386.643 273.135 386.643 Z  M 270.136 379.759 L 274.748 379.759 L 274.748 379.759 Q 274.52 378.645 273.93 378.111 L 273.93 378.111 L 273.93 378.111 Q 273.339 377.578 272.453 377.578 L 272.453 377.578 L 272.453 377.578 Q 271.544 377.578 270.931 378.134 L 270.931 378.134 L 270.931 378.134 Q 270.317 378.691 270.136 379.759 L 270.136 379.759 Z  M 207.166 377.408 L 207.166 377.408 L 207.166 377.408 Q 207.166 372.991 209.99 370.545 L 209.99 370.545 L 209.99 370.545 Q 212.815 368.1 216.601 368.1 L 216.601 368.1 L 216.601 368.1 Q 220.388 368.1 223.212 370.466 L 223.212 370.466 L 223.212 370.466 Q 226.036 372.833 226.036 377.345 L 226.036 377.345 L 226.036 377.345 Q 226.036 381.763 223.212 384.287 L 223.212 384.287 L 223.212 384.287 Q 220.388 386.812 216.57 386.812 L 216.57 386.812 L 216.57 386.812 Q 213.004 386.812 210.085 384.366 L 210.085 384.366 L 210.085 384.366 Q 207.166 381.921 207.166 377.408 Z  M 213.099 377.314 L 213.099 377.314 L 213.099 377.314 Q 213.099 379.554 214.108 380.848 L 214.108 380.848 L 214.108 380.848 Q 215.118 382.142 216.601 382.142 L 216.601 382.142 L 216.601 382.142 Q 218.053 382.142 219.078 380.879 L 219.078 380.879 L 219.078 380.879 Q 220.104 379.617 220.104 377.44 L 220.104 377.44 L 220.104 377.44 Q 220.104 375.231 219.062 374.001 L 219.062 374.001 L 219.062 374.001 Q 218.021 372.77 216.57 372.77 L 216.57 372.77 L 216.57 372.77 Q 215.181 372.77 214.14 373.985 L 214.14 373.985 L 214.14 373.985 Q 213.099 375.2 213.099 377.314 Z  M 235.786 368.1 L 235.786 368.1 L 235.786 368.1 Q 239.257 368.1 241.387 369.646 L 241.387 369.646 L 241.387 369.646 Q 243.517 371.192 243.517 373.685 L 243.517 373.685 L 243.517 373.685 Q 243.517 374.821 242.76 376.083 L 242.76 376.083 L 242.76 376.083 Q 242.003 377.345 241.151 377.787 L 241.151 377.787 L 241.151 377.787 Q 242.255 378.45 243.06 379.807 L 243.06 379.807 L 243.06 379.807 Q 243.864 381.163 243.864 382.552 L 243.864 382.552 L 243.864 382.552 Q 243.864 385.329 241.545 387.08 L 241.545 387.08 L 241.545 387.08 Q 239.226 388.831 235.408 388.831 L 235.408 388.831 L 235.408 388.831 Q 233.672 388.831 231.605 388.216 L 231.605 388.216 L 231.605 388.216 Q 229.539 387.601 227.74 386.433 L 227.74 386.433 L 230.801 382.615 L 230.801 382.615 Q 232.158 383.467 233.246 383.83 L 233.246 383.83 L 233.246 383.83 Q 234.335 384.193 235.439 384.193 L 235.439 384.193 L 235.439 384.193 Q 236.512 384.193 237.222 383.704 L 237.222 383.704 L 237.222 383.704 Q 237.932 383.215 237.932 382.394 L 237.932 382.394 L 237.932 382.394 Q 237.932 381.479 237.317 380.974 L 237.317 380.974 L 237.317 380.974 Q 236.702 380.469 235.755 380.469 L 235.755 380.469 L 232.505 380.469 L 232.031 375.957 L 234.619 375.957 L 234.619 375.957 Q 235.976 375.957 236.78 375.468 L 236.78 375.468 L 236.78 375.468 Q 237.585 374.979 237.585 374.19 L 237.585 374.19 L 237.585 374.19 Q 237.585 373.59 237.017 373.18 L 237.017 373.18 L 237.017 373.18 Q 236.449 372.77 235.218 372.77 L 235.218 372.77 L 235.218 372.77 Q 234.335 372.77 233.294 373.164 L 233.294 373.164 L 233.294 373.164 Q 232.252 373.559 231.148 374.316 L 231.148 374.316 L 228.403 370.435 L 228.403 370.435 Q 230.075 369.11 232 368.605 L 232 368.605 L 232 368.605 Q 233.925 368.1 235.786 368.1 Z  M 188.581 381.227 L 188.581 381.227 L 188.581 381.227 Q 188.581 381.605 188.896 381.858 L 188.896 381.858 L 188.896 381.858 Q 189.212 382.11 189.622 382.11 L 189.622 382.11 L 189.622 382.11 Q 190.127 382.11 190.632 381.889 L 190.632 381.889 L 190.632 381.889 Q 191.136 381.668 191.641 381.258 L 191.641 381.258 L 191.641 380.122 L 189.874 380.122 L 189.874 380.122 Q 189.306 380.122 188.943 380.422 L 188.943 380.422 L 188.943 380.422 Q 188.581 380.722 188.581 381.227 Z  M 185.804 376.115 L 184.289 371.981 L 184.289 371.981 Q 185.488 371.445 187.318 370.987 L 187.318 370.987 L 187.318 370.987 Q 189.149 370.53 191.042 370.53 L 191.042 370.53 L 191.042 370.53 Q 194.166 370.53 195.775 372.265 L 195.775 372.265 L 195.775 372.265 Q 197.384 374.001 197.384 376.904 L 197.384 376.904 L 197.384 386.37 L 194.828 386.37 L 193.787 385.202 L 193.787 385.202 Q 193.093 385.897 191.957 386.307 L 191.957 386.307 L 191.957 386.307 Q 190.821 386.717 189.527 386.717 L 189.527 386.717 L 189.527 386.717 Q 186.624 386.717 185.204 385.266 L 185.204 385.266 L 185.204 385.266 Q 183.784 383.814 183.784 381.447 L 183.784 381.447 L 183.784 381.447 Q 183.784 378.955 185.457 377.803 L 185.457 377.803 L 185.457 377.803 Q 187.129 376.651 189.78 376.651 L 189.78 376.651 L 191.61 376.651 L 191.61 376.651 Q 191.484 375.957 190.947 375.578 L 190.947 375.578 L 190.947 375.578 Q 190.411 375.2 189.622 375.2 L 189.622 375.2 L 189.622 375.2 Q 188.833 375.2 187.76 375.468 L 187.76 375.468 L 187.76 375.468 Q 186.687 375.736 185.804 376.115 L 185.804 376.115 Z  M 140.207 377.408 L 140.207 377.408 L 140.207 377.408 Q 140.207 372.991 143.031 370.545 L 143.031 370.545 L 143.031 370.545 Q 145.855 368.1 149.642 368.1 L 149.642 368.1 L 149.642 368.1 Q 153.429 368.1 156.253 370.466 L 156.253 370.466 L 156.253 370.466 Q 159.077 372.833 159.077 377.345 L 159.077 377.345 L 159.077 377.345 Q 159.077 381.763 156.253 384.287 L 156.253 384.287 L 156.253 384.287 Q 153.429 386.812 149.61 386.812 L 149.61 386.812 L 149.61 386.812 Q 146.045 386.812 143.126 384.366 L 143.126 384.366 L 143.126 384.366 Q 140.207 381.921 140.207 377.408 Z  M 146.139 377.314 L 146.139 377.314 L 146.139 377.314 Q 146.139 379.554 147.149 380.848 L 147.149 380.848 L 147.149 380.848 Q 148.159 382.142 149.642 382.142 L 149.642 382.142 L 149.642 382.142 Q 151.094 382.142 152.119 380.879 L 152.119 380.879 L 152.119 380.879 Q 153.145 379.617 153.145 377.44 L 153.145 377.44 L 153.145 377.44 Q 153.145 375.231 152.103 374.001 L 152.103 374.001 L 152.103 374.001 Q 151.062 372.77 149.61 372.77 L 149.61 372.77 L 149.61 372.77 Q 148.222 372.77 147.181 373.985 L 147.181 373.985 L 147.181 373.985 Q 146.139 375.2 146.139 377.314 Z  M 175.264 386.37 L 162.485 386.37 L 161.98 381.858 L 166.24 381.858 L 166.24 375.641 L 163.779 376.777 L 161.286 371.886 L 168.165 368.51 L 171.983 368.51 L 171.983 381.858 L 174.728 381.858 L 175.264 386.37 Z " fill="rgb(255,255,255)"/></g></g></svg>