<?xml version="1.0" encoding="UTF-8" standalone="no"?>
<!DOCTYPE svg PUBLIC "-//W3C//DTD SVG 1.1//EN" "http://www.w3.org/Graphics/SVG/1.1/DTD/svg11.dtd">
<svg width="100%" height="100%" viewBox="0 0 500 699" version="1.1" xmlns="http://www.w3.org/2000/svg" xmlns:xlink="http://www.w3.org/1999/xlink" xml:space="preserve" xmlns:serif="http://www.serif.com/" style="fill-rule:evenodd;clip-rule:evenodd;stroke-linejoin:round;stroke-miterlimit:2;">
    <g transform="matrix(4.38976,0,0,4.38976,-1702.23,-826.486)">
        <g>
            <path d="M463.713,318.84L455.364,320.028L456.558,328.382L464.903,327.182L463.713,318.84Z" style="fill:white;fill-rule:nonzero;"/>
        </g>
        <g>
            <path d="M456.558,328.382L448.213,329.567L449.397,337.909L457.747,336.726L456.558,328.382Z" style="fill:white;fill-rule:nonzero;"/>
        </g>
        <g>
            <path d="M445.772,312.837L437.435,314.021L442.238,347.442L450.585,346.263L445.772,312.837Z" style="fill:white;fill-rule:nonzero;"/>
        </g>
        <g>
            <path d="M471.122,308.976L462.771,310.163L463.954,318.505L472.302,317.316L471.122,308.976Z" style="fill:white;fill-rule:nonzero;"/>
        </g>
        <g>
            <path d="M478.538,299.085L470.196,300.266L471.383,308.615L479.735,307.427L478.538,299.085Z" style="fill:white;fill-rule:nonzero;"/>
        </g>
        <g>
            <path d="M485.96,289.192L477.612,290.384L478.796,298.73L487.142,297.542L485.96,289.192Z" style="fill:white;fill-rule:nonzero;"/>
        </g>
        <g>
            <path d="M493.271,279.434L484.929,280.627L486.115,288.985L494.463,287.788L493.271,279.434Z" style="fill:white;fill-rule:nonzero;"/>
        </g>
        <g>
            <path d="M425.18,289.706L416.83,290.893L418.023,299.241L426.377,298.053L425.18,289.706Z" style="fill:white;fill-rule:nonzero;"/>
        </g>
        <g>
            <path d="M501.478,278.399L500.286,270.056L405.186,284.272L406.382,292.616L501.478,278.399Z" style="fill:white;fill-rule:nonzero;"/>
        </g>
        <g>
            <path d="M434.847,296.835L426.509,298.036L430.307,323.481L438.65,322.296L434.847,296.835Z" style="fill:white;fill-rule:nonzero;"/>
        </g>
        <g>
            <path d="M404.903,327.877L387.772,330.318L390.212,347.453L407.347,345.01L404.903,327.877Z" style="fill:white;fill-rule:nonzero;"/>
        </g>
        <g>
            <path d="M420.566,316.23L403.439,318.673L405.877,335.803L423.01,333.365L420.566,316.23Z" style="fill:white;fill-rule:nonzero;"/>
        </g>
        <g>
            <path d="M436.301,305.19L419.171,307.655L421.611,324.776L438.742,322.331L436.301,305.19Z" style="fill:white;fill-rule:nonzero;"/>
        </g>
    </g>
    <g transform="matrix(4.38976,0,0,4.38976,-1702.23,-826.486)">
        <path d="M425.838,275.068L433.355,276.866L444.112,244.472L468.225,253.053L463.301,267.818L470.271,271.142L478.882,247.518L462.025,241.082L465.893,230.084L482.087,235.399L485.122,227.816L468.442,222.051L473.537,208.189L451.105,200.023L418.935,214.972L422.196,222.836L446.524,211.188L425.838,275.068Z" style="fill:white;fill-rule:nonzero;"/>
    </g>
    <g transform="matrix(4.38976,0,0,4.38976,-1702.23,-826.486)">
        <path d="M471.231,197.758L461.742,202.53L456.969,193.049L466.45,188.276L471.231,197.758Z" style="fill:white;fill-rule:nonzero;"/>
    </g>
</svg>
