<?xml version="1.0" encoding="UTF-8" standalone="no"?><!-- Generator: Gravit.io --><svg xmlns="http://www.w3.org/2000/svg" xmlns:xlink="http://www.w3.org/1999/xlink" style="isolation:isolate" viewBox="0 0 450 315" width="450pt" height="315pt"><defs><clipPath id="_clipPath_r8VnJ6goUN4I4Y90Hzd2OIaG3YcGSHkz"><rect width="450" height="315"/></clipPath></defs><g clip-path="url(#_clipPath_r8VnJ6goUN4I4Y90Hzd2OIaG3YcGSHkz)"><g><g><g><path d=" M 35.512 5.578 L 226.467 6.672 L 226.103 61.337 L 263.999 5.942 L 278.942 5.942 L 225.734 86.481 L 225.734 105.791 L 292.06 6.672 L 307.803 6.247 L 224.643 128.024 L 225.373 145.152 L 323.399 5.942 L 337.386 6.247 L 225.373 166.288 L 225.373 187.788 L 349.639 5.942 L 413.048 7.038 C 405.029 251.196 58.105 264.313 35.512 5.578 Z " fill="rgb(51,51,51)"/><path d=" M 2.5 235.634 L 16.731 235.942 L 16.636 280.479 C 23.46 300.22 52.95 302.172 58.558 279.99 L 58.483 235.986 L 71.787 236.135 L 71.477 280.969 C 66.843 314.848 13.467 322.643 3.717 280.723 L 2.5 235.634 L 2.5 235.634 Z " fill="rgb(51,51,51)"/><path d=" M 92.437 308.848 L 105.25 309.422 L 105.627 254.357 L 146.932 308.848 L 162.418 308.848 L 162.225 236.384 L 148.842 236.384 L 148.456 292.596 L 106.586 236.193 L 92.054 236.764 L 92.437 308.848 L 92.437 308.848 Z " fill="rgb(51,51,51)"/><rect x="181.921" y="235.807" width="13.576" height="73.611" transform="matrix(1,0,0,1,0,0)" fill="rgb(51,51,51)"/><rect x="433.924" y="235.055" width="13.576" height="73.611" transform="matrix(1,0,0,1,0,0)" fill="rgb(51,51,51)"/><path d=" M 208.161 236.143 L 222.439 235.986 L 247.391 297.815 L 271.242 235.986 L 285.837 236.143 L 256.805 308.325 L 236.72 308.169 L 208.161 236.143 L 208.161 236.143 Z " fill="rgb(51,51,51)"/><path d=" M 355.549 308.502 L 341.271 308.658 L 316.32 246.833 L 292.468 308.658 L 277.877 308.502 L 306.903 236.319 L 326.993 236.479 L 355.549 308.502 L 355.549 308.502 Z " fill="rgb(51,51,51)"/><path d=" M 384.086 297.968 L 420.021 298.293 L 420.021 309.139 L 369.841 308.49 L 369.033 235.81 L 383.602 235.975 L 384.086 297.968 L 384.086 297.968 Z " fill="rgb(51,51,51)"/></g></g></g></g></svg>