<?xml version="1.0" encoding="UTF-8" standalone="no"?><!-- Generator: Gravit.io --><svg xmlns="http://www.w3.org/2000/svg" xmlns:xlink="http://www.w3.org/1999/xlink" style="isolation:isolate" viewBox="0 0 512 512" width="512pt" height="512pt"><defs><clipPath id="_clipPath_d4t4MQ1DL0PfKtYhrbrjw6kOtroLt2Kn"><rect width="512" height="512"/></clipPath></defs><g clip-path="url(#_clipPath_d4t4MQ1DL0PfKtYhrbrjw6kOtroLt2Kn)"><clipPath id="_clipPath_ZrUWSqTG07iMsN5azhscQKezOTCMyJZm"><rect x="0" y="0" width="512" height="512" transform="matrix(1,0,0,1,0,0)" fill="rgb(255,255,255)"/></clipPath><g clip-path="url(#_clipPath_ZrUWSqTG07iMsN5azhscQKezOTCMyJZm)"><g><g><path d=" M 66.512 104.078 L 257.467 105.172 L 257.103 159.837 L 294.999 104.442 L 309.942 104.442 L 256.734 184.981 L 256.734 204.291 L 323.06 105.172 L 338.803 104.747 L 255.643 226.524 L 256.373 243.652 L 354.399 104.442 L 368.386 104.747 L 256.373 264.788 L 256.373 286.288 L 380.639 104.442 L 444.048 105.538 C 436.029 349.696 89.105 362.813 66.512 104.078 Z " fill="rgb(51,51,51)"/><path d=" M 33.5 334.134 L 47.731 334.442 L 47.636 378.979 C 54.46 398.72 83.95 400.672 89.558 378.49 L 89.483 334.486 L 102.787 334.635 L 102.477 379.469 C 97.843 413.348 44.467 421.143 34.717 379.223 L 33.5 334.134 L 33.5 334.134 Z " fill="rgb(51,51,51)"/><path d=" M 123.437 407.348 L 136.25 407.922 L 136.627 352.857 L 177.932 407.348 L 193.418 407.348 L 193.225 334.884 L 179.842 334.884 L 179.456 391.096 L 137.586 334.693 L 123.054 335.264 L 123.437 407.348 L 123.437 407.348 Z " fill="rgb(51,51,51)"/><rect x="212.921" y="334.307" width="13.576" height="73.611" transform="matrix(1,0,0,1,0,0)" fill="rgb(51,51,51)"/><rect x="464.924" y="333.555" width="13.576" height="73.611" transform="matrix(1,0,0,1,0,0)" fill="rgb(51,51,51)"/><path d=" M 239.161 334.643 L 253.439 334.486 L 278.391 396.315 L 302.242 334.486 L 316.837 334.643 L 287.805 406.825 L 267.72 406.669 L 239.161 334.643 L 239.161 334.643 Z " fill="rgb(51,51,51)"/><path d=" M 386.549 407.002 L 372.271 407.158 L 347.32 345.333 L 323.468 407.158 L 308.877 407.002 L 337.903 334.819 L 357.993 334.979 L 386.549 407.002 L 386.549 407.002 Z " fill="rgb(51,51,51)"/><path d=" M 415.086 396.468 L 451.021 396.793 L 451.021 407.639 L 400.841 406.99 L 400.033 334.31 L 414.602 334.475 L 415.086 396.468 L 415.086 396.468 Z " fill="rgb(51,51,51)"/></g></g></g></g></svg>